<svg version="1" xmlns="http://www.w3.org/2000/svg" width="672" height="274.667" viewBox="0 0 504.000000 206.000000"><path d="M57.2 11.6c-3.5 4.7-6.2 8.8-5.9 9 .2.3 6.1.3 13.1.2l12.8-.3-6.7-8.8C66.9 6.9 63.8 3 63.7 3c-.1.1-3 3.9-6.5 8.6zm-1.4 32.5c-7.5.8-16.6 3.5-18.6 5.4-1.2 1-1.2 3.8-.1 16.6.7 8.5 1.3 26.4 1.4 39.9 0 22.7-.2 25.1-2.3 32.5-1.3 4.4-3.5 10.2-5 12.9-3.1 5.8-11 13.9-15.1 15.6-1.6.6-3.2 2.1-3.5 3.3-1.8 6.7.9 17 5.8 22.2 3.3 3.5 3.5 3.5 9.2 2.9 26.8-2.8 48.2-16.1 58-35.9C91.7 147 94 130.1 94 96.2c0-12.6-.3-28.4-.7-35.2l-.6-12.2-3.2-1.4c-6.8-2.8-23.7-4.5-33.7-3.3zm226.2.5c-1.4.2-5.2.9-8.5 1.5-16 2.9-26.2 11.1-30 24.4-4.6 15.5 2.9 31.4 17.9 38 6 2.6 18.9 5.8 32.5 7.9 10.5 1.6 14.1 3.6 15.5 8.4 2.4 8.6-8.1 16.4-17.8 13.2-4.5-1.5-6.6-4.4-6.6-9.1 0-4.7-3-7.3-10.8-9.5-9.9-2.9-25.6 0-30.8 5.7-2.2 2.5-1.5 12.9 1.4 18.5 6.7 13.2 22.4 18.1 54.7 17.1 30-.9 42.3-6.1 50.3-21.2 2.4-4.4 2.7-6.1 2.7-15 0-12-2.3-18.2-8.9-24.3-5.5-5.1-12.4-7.6-29.4-10.7-21.2-3.8-27.6-6.7-28.8-12.9-1.8-9.7 10.6-15.8 17.7-8.7 2 2 2.9 3.9 2.9 6.1 0 2.7.6 3.4 4.8 5.3 3.8 1.8 6.5 2.2 14.2 2.2 8.5 0 10.1-.3 15.4-3 3.2-1.7 6.4-3.7 6.9-4.6 1.3-2-2.7-11-7.1-16-4-4.6-13.1-9.4-21.3-11.4-6.2-1.5-31.8-2.8-36.9-1.9zm-135 1.9c-.8.2-4.4.7-8 1-3.6.3-7.1 1-7.9 1.4-.7.5-2.4 6.8-3.7 14.2-5.8 31.5-14.6 59.4-25.5 81.1-3.9 7.8-4 8.2-2.3 9.6 8.4 6.4 23.5 8.4 38.6 5l4.8-1 2.6-8.4 2.6-8.4 15.7.6c8.6.3 16.1.7 16.7.9.6.2 1.7 2.3 2.3 4.8 2.3 8 4.3 10.3 10.3 11.8 13.1 3.2 33.8.7 38.8-4.6l2.1-2.3-4.9-9.8c-10.5-21-17-42.9-21.8-73.6l-2.8-17.6-3.5-1c-7.7-2.3-17.3-3.3-34.6-3.7-9.9-.2-18.7-.2-19.5 0zm22.5 29.2c1.1 8.7 4.6 32.8 5.2 35.5l.6 2.8h-10.8c-8.9 0-10.6-.2-10.2-1.4.6-1.5 5-28 6.2-36.9.6-4.7.6-4.7 4.5-4.7s3.9 0 4.5 4.7zm289.9-28.6l-5.1 1-1.2 13.7c-.7 7.5-1.6 18.9-1.9 25.2l-.7 11.5L439.8 84c-5.9-8-13.5-19.1-16.8-24.7l-6.1-10.2-5.6-1.1c-6.9-1.5-33.1-.8-38.7 1l-3.8 1.2.6 4.6c2.1 15.3 2.8 30.9 2.3 50.7-.5 18.8-2.4 41.4-4.2 49.2-.5 2 .2 2.5 6.6 4.4 6.1 1.9 8.7 2.1 17.3 1.6 5.5-.3 11.8-1.1 13.8-1.7 4.9-1.4 5.2-3 5.3-30.6v-22.1l9.4 12.6c9.5 12.6 20.4 28.9 23.4 34.7 2.1 4.2 10.7 6.7 23.2 6.8 8.9.1 22.8-2.5 24.1-4.5.3-.5-.3-6.7-1.2-13.7-2.2-15.7-2.5-61-.6-74.2.7-4.7 1.5-10.6 1.9-13.1l.5-4.6-4.8-1.7c-5.9-2.1-19.9-2.9-27-1.5z" fill="#6db8f1"/></svg>