<svg xmlns="http://www.w3.org/2000/svg" baseProfile="tiny" width="100" height="100" viewBox="0 0 100 100"><path fill-rule="evenodd" fill="#6db8f1" d="M49.947 90.991c.693 0 1.41.02 2.104 0 13.547-.201 26.439-1.723 28.775-3.945.537-4.928 1.195-7.311-20.65-17.644-3.107-1.742-1.465-8.492-1.465-8.492 6.578-4.969 11.096-16.463 11.096-25.676 0-15.921-7.18-23.453-17.756-24.234h-2.104c-10.557.781-17.734 8.312-17.734 24.234 0 9.213 4.496 20.707 11.078 25.676 0 0 1.641 6.75-1.449 8.492-21.863 10.333-21.207 12.716-20.666 17.644 2.334 2.223 15.226 3.744 28.771 3.945z"/></svg>